<svg width="22.000000" height="17.790939" viewBox="0 0 22 17.7909" fill="none" xmlns="http://www.w3.org/2000/svg" xmlns:xlink="http://www.w3.org/1999/xlink">
	<desc>
			Created with Pixso.
	</desc>
	<defs/>
	<path id="Shape" d="M11.6924 3.91706C11.3054 4.28838 10.6946 4.28838 10.3076 3.91706L9.61523 3.2526C8.80469 2.47488 7.70996 2 6.5 2C4.01465 2 2 4.01472 2 6.5C2 8.88263 3.28979 10.8501 5.15186 12.4666C7.01538 14.0844 9.24341 15.1574 10.5747 15.7051C10.853 15.8196 11.147 15.8196 11.4253 15.7051C12.7566 15.1574 14.9846 14.0844 16.8481 12.4666C18.7102 10.8501 20 8.88263 20 6.5C20 4.01472 17.9854 2 15.5 2C14.29 2 13.1953 2.47487 12.3848 3.2526L11.6924 3.91706ZM11 1.80957C9.83203 0.688805 8.24658 0 6.5 0C2.91016 0 0 2.91015 0 6.5C0 12.8683 6.97046 16.385 9.81372 17.5547C10.5796 17.8697 11.4204 17.8697 12.1863 17.5547C15.0295 16.385 22 12.8683 22 6.5C22 2.91015 19.0898 0 15.5 0C13.7534 0 12.168 0.688805 11 1.80957Z" fill="#141718" fill-opacity="1.000000" fill-rule="evenodd"/>
</svg>
