<svg width="14.000000" height="14.000000" viewBox="0 0 14 14" fill="none" xmlns="http://www.w3.org/2000/svg" xmlns:xlink="http://www.w3.org/1999/xlink">
	<desc>
			Created with Pixso.
	</desc>
	<defs/>
	<path d="M0.292969 0.292908C0.68335 -0.0976257 1.31665 -0.0976257 1.70703 0.292908L7 5.58578L12.293 0.292908C12.6833 -0.0976257 13.3167 -0.0976257 13.707 0.292908C14.0977 0.683411 14.0977 1.31659 13.707 1.70709L8.41431 7L13.707 12.2929C14.0977 12.6834 14.0977 13.3166 13.707 13.7071C13.3167 14.0976 12.6833 14.0976 12.293 13.7071L7 8.41422L1.70703 13.7071C1.31665 14.0976 0.68335 14.0976 0.292969 13.7071C-0.0976562 13.3166 -0.0976562 12.6834 0.292969 12.2929L5.58569 7L0.292969 1.70709C-0.0976562 1.31659 -0.0976562 0.683411 0.292969 0.292908Z" fill="#6C7275" fill-opacity="1.000000" fill-rule="evenodd"/>
</svg>
